<?xml version="1.0" standalone="no"?>
<!DOCTYPE svg PUBLIC "-//W3C//DTD SVG 20010904//EN"
 "http://www.w3.org/TR/2001/REC-SVG-20010904/DTD/svg10.dtd">
<svg version="1.0" xmlns="http://www.w3.org/2000/svg"
 width="512.000000pt" height="512.000000pt" viewBox="0 0 512.000000 512.000000"
 preserveAspectRatio="xMidYMid meet">

<g transform="translate(0.000000,512.000000) scale(0.100000,-0.100000)"
fill="#ed931d" stroke="none">
<path d="M786 4629 c-62 -15 -153 -68 -197 -116 -22 -24 -55 -74 -72 -111
l-32 -67 0 -655 0 -655 32 -67 c44 -93 100 -151 191 -196 l76 -37 656 0 656 0
76 37 c91 45 147 103 191 196 l32 67 0 656 0 655 -37 76 c-45 91 -103 147
-196 191 l-67 32 -635 2 c-363 1 -652 -3 -674 -8z m1288 -161 c55 -16 138 -99
154 -154 17 -59 17 -1209 0 -1268 -16 -55 -99 -138 -154 -154 -30 -9 -198 -12
-634 -12 -436 0 -604 3 -634 12 -55 16 -138 99 -154 154 -17 59 -17 1209 0
1268 15 51 99 137 148 153 52 16 1219 17 1274 1z"/>
<path d="M3026 4629 c-62 -15 -153 -68 -197 -116 -22 -24 -55 -74 -72 -111
l-32 -67 0 -655 0 -655 32 -67 c44 -93 100 -151 191 -196 l76 -37 656 0 656 0
76 37 c91 45 147 103 191 196 l32 67 0 656 0 655 -37 76 c-45 91 -103 147
-196 191 l-67 32 -635 2 c-363 1 -652 -3 -674 -8z m1288 -161 c55 -16 138 -99
154 -154 17 -59 17 -1209 0 -1268 -16 -55 -99 -138 -154 -154 -59 -17 -1209
-17 -1268 0 -55 16 -138 99 -154 154 -17 59 -17 1209 0 1268 15 51 99 137 148
153 52 16 1219 17 1274 1z"/>
<path d="M786 2389 c-62 -15 -153 -68 -197 -116 -22 -24 -55 -74 -72 -111
l-32 -67 0 -655 0 -655 32 -67 c44 -93 100 -151 191 -196 l76 -37 656 0 656 0
76 37 c91 45 147 103 191 196 l32 67 0 656 0 655 -37 76 c-45 91 -103 147
-196 191 l-67 32 -635 2 c-363 1 -652 -3 -674 -8z m1288 -161 c55 -16 138 -99
154 -154 17 -59 17 -1209 0 -1268 -16 -55 -99 -138 -154 -154 -59 -17 -1209
-17 -1268 0 -55 16 -138 99 -154 154 -17 59 -17 1209 0 1268 15 51 99 137 148
153 52 16 1219 17 1274 1z"/>
<path d="M3537 2389 c-128 -19 -291 -83 -406 -161 -82 -55 -222 -207 -272
-293 -103 -179 -134 -295 -133 -495 0 -160 13 -229 65 -359 89 -224 288 -428
509 -522 132 -56 219 -73 380 -73 200 -1 316 31 495 133 109 63 263 217 326
326 102 177 133 294 133 495 0 201 -32 321 -133 495 -62 107 -208 254 -320
323 -189 116 -423 163 -644 131z m333 -172 c100 -28 168 -57 243 -107 427
-278 490 -875 131 -1234 -359 -359 -956 -296 -1234 131 -192 292 -167 680 60
948 120 141 273 231 460 271 80 17 262 12 340 -9z"/>
</g>
</svg>
